<svg xmlns="http://www.w3.org/2000/svg" xmlns:xlink="http://www.w3.org/1999/xlink" width="1413pt" height="185pt" viewBox="0.00 0.00 1413.00 185.00">
<g id="graph0" class="graph" transform="scale(1 1) rotate(0) translate(4 181)">
<title>%3</title>
<polygon fill="white" stroke="none" points="-4,4 -4,-181 1409,-181 1409,4 -4,4"/>
<!-- subject.Subject.Source -->
<g id="node1" class="node"><title>subject.Subject.Source</title>
<g id="a_node1"><a xlink:title="→ subject.Subject------------------------------→ lab.Source">
<polygon fill="none" stroke="none" points="525.5,-98 407.5,-98 407.5,-79 525.5,-79 525.5,-98"/>
<text text-anchor="middle" x="466.5" y="-86" font-family="arial" font-size="10.00">subject.Subject.Source</text>
</a>
</g>
</g>
<!-- subject.Subject.User -->
<g id="node2" class="node"><title>subject.Subject.User</title>
<g id="a_node2"><a xlink:title="→ subject.Subject→ User">
<polygon fill="none" stroke="none" points="651,-98 544,-98 544,-79 651,-79 651,-98"/>
<text text-anchor="middle" x="597.5" y="-86" font-family="arial" font-size="10.00">subject.Subject.User</text>
</a>
</g>
</g>
<!-- subject.Line.Allele -->
<g id="node3" class="node"><title>subject.Line.Allele</title>
<g id="a_node3"><a xlink:title="→ subject.Line→ subject.Allele">
<polygon fill="none" stroke="none" points="1277.5,-98 1181.5,-98 1181.5,-79 1277.5,-79 1277.5,-98"/>
<text text-anchor="middle" x="1229.5" y="-86" font-family="arial" font-size="10.00">subject.Line.Allele</text>
</a>
</g>
</g>
<!-- subject.Subject.Species -->
<g id="node4" class="node"><title>subject.Subject.Species</title>
<g id="a_node4"><a xlink:title="→ subject.Subject------------------------------species              ">
<polygon fill="none" stroke="none" points="791.5,-98 669.5,-98 669.5,-79 791.5,-79 791.5,-98"/>
<text text-anchor="middle" x="730.5" y="-86" font-family="arial" font-size="10.00">subject.Subject.Species</text>
</a>
</g>
</g>
<!-- subject.SubjectDeath -->
<g id="node5" class="node"><title>subject.SubjectDeath</title>
<g id="a_node5"><a xlink:title="→ subject.Subject------------------------------death_date           ">
<polygon fill="#00ff00" fill-opacity="0.188235" stroke="#00ff00" stroke-opacity="0.188235" points="127,-106 -7.10543e-015,-106 -7.10543e-015,-71 127,-71 127,-106"/>
<text text-anchor="middle" x="63.5" y="-85.4" font-family="arial" font-size="12.00" fill="darkgreen">subject.SubjectDeath</text>
</a>
</g>
</g>
<!-- subject.SubjectCull -->
<g id="node16" class="node"><title>subject.SubjectCull</title>
<g id="a_node16"><a xlink:title="→ subject.SubjectDeath------------------------------cull_method=&quot;&quot;       cull_reason=&quot;&quot;       cull_notes=&quot;&quot;        ">
<polygon fill="#00ff00" fill-opacity="0.188235" stroke="#00ff00" stroke-opacity="0.188235" points="121,-35 6,-35 6,-0 121,-0 121,-35"/>
<text text-anchor="middle" x="63.5" y="-14.4" font-family="arial" font-size="12.00" fill="darkgreen">subject.SubjectCull</text>
</a>
</g>
</g>
<!-- subject.SubjectDeath&#45;&gt;subject.SubjectCull -->
<g id="edge1" class="edge"><title>subject.SubjectDeath-&gt;subject.SubjectCull</title>
<path fill="none" stroke="#000000" stroke-width="2" stroke-opacity="0.250980" d="M63.5,-70.797C63.5,-59.9485 63.5,-45.8669 63.5,-35.0492"/>
</g>
<!-- subject.Strain -->
<g id="node6" class="node"><title>subject.Strain</title>
<g id="a_node6"><a xlink:title="strain               ------------------------------strain_standard_name strain_desc=&quot;&quot;       ">
<polygon fill="#000000" fill-opacity="0.125490" stroke="none" points="905,-177 828,-177 828,-142 905,-142 905,-177"/>
<text text-anchor="start" x="836" y="-158" font-family="arial" text-decoration="underline" font-size="10.00">subject.Strain</text>
</a>
</g>
</g>
<!-- subject.Subject.Strain -->
<g id="node10" class="node"><title>subject.Subject.Strain</title>
<g id="a_node10"><a xlink:title="→ subject.Subject------------------------------→ subject.Strain">
<polygon fill="none" stroke="none" points="923,-98 810,-98 810,-79 923,-79 923,-98"/>
<text text-anchor="middle" x="866.5" y="-86" font-family="arial" font-size="10.00">subject.Subject.Strain</text>
</a>
</g>
</g>
<!-- subject.Strain&#45;&gt;subject.Subject.Strain -->
<g id="edge2" class="edge"><title>subject.Strain-&gt;subject.Subject.Strain</title>
<path fill="none" stroke="#000000" stroke-width="0.75" stroke-dasharray="5,2" stroke-opacity="0.250980" d="M866.5,-141.797C866.5,-128.077 866.5,-109.185 866.5,-98.2652"/>
</g>
<!-- subject.Line -->
<g id="node7" class="node"><title>subject.Line</title>
<g id="a_node7"><a xlink:title="line                 ------------------------------species=&quot;&quot;           line_description=&quot;&quot;  target_phenotype=&quot;&quot;  is_active            ">
<polygon fill="#000000" fill-opacity="0.125490" stroke="none" points="1264,-177 1195,-177 1195,-142 1264,-142 1264,-177"/>
<text text-anchor="start" x="1203" y="-158" font-family="arial" text-decoration="underline" font-size="10.00">subject.Line</text>
</a>
</g>
</g>
<!-- subject.Line&#45;&gt;subject.Line.Allele -->
<g id="edge3" class="edge"><title>subject.Line-&gt;subject.Line.Allele</title>
<path fill="none" stroke="#000000" stroke-width="0.75" stroke-opacity="0.250980" d="M1229.5,-141.797C1229.5,-128.077 1229.5,-109.185 1229.5,-98.2652"/>
</g>
<!-- subject.Subject.Line -->
<g id="node14" class="node"><title>subject.Subject.Line</title>
<g id="a_node14"><a xlink:title="→ subject.Subject------------------------------→ subject.Line">
<polygon fill="none" stroke="none" points="1046,-98 941,-98 941,-79 1046,-79 1046,-98"/>
<text text-anchor="middle" x="993.5" y="-86" font-family="arial" font-size="10.00">subject.Subject.Line</text>
</a>
</g>
</g>
<!-- subject.Line&#45;&gt;subject.Subject.Line -->
<g id="edge4" class="edge"><title>subject.Line-&gt;subject.Subject.Line</title>
<path fill="none" stroke="#000000" stroke-width="0.75" stroke-dasharray="5,2" stroke-opacity="0.250980" d="M1194.93,-148.393C1148.33,-134.768 1066.18,-110.749 1022.58,-98.0024"/>
</g>
<!-- subject.Subject.Lab -->
<g id="node8" class="node"><title>subject.Subject.Lab</title>
<g id="a_node8"><a xlink:title="→ subject.Subject→ lab.Lab------------------------------subject_alias=&quot;&quot;     ">
<polygon fill="none" stroke="none" points="248,-98 145,-98 145,-79 248,-79 248,-98"/>
<text text-anchor="middle" x="196.5" y="-86" font-family="arial" font-size="10.00">subject.Subject.Lab</text>
</a>
</g>
</g>
<!-- subject.Zygosity -->
<g id="node9" class="node"><title>subject.Zygosity</title>
<g id="a_node9"><a xlink:title="→ subject.Subject→ subject.Allele------------------------------zygosity             ">
<polygon fill="#00ff00" fill-opacity="0.188235" stroke="#00ff00" stroke-opacity="0.188235" points="1163,-106 1064,-106 1064,-71 1163,-71 1163,-106"/>
<text text-anchor="middle" x="1113.5" y="-85.4" font-family="arial" font-size="12.00" fill="darkgreen">subject.Zygosity</text>
</a>
</g>
</g>
<!-- subject.Allele.Source -->
<g id="node11" class="node"><title>subject.Allele.Source</title>
<g id="a_node11"><a xlink:title="→ subject.Allele------------------------------→ lab.Sourcesource_identifier=&quot;&quot; source_url=&quot;&quot;        expression_data_url=&quot;&quot; ">
<polygon fill="none" stroke="none" points="1405,-98 1296,-98 1296,-79 1405,-79 1405,-98"/>
<text text-anchor="middle" x="1350.5" y="-86" font-family="arial" font-size="10.00">subject.Allele.Source</text>
</a>
</g>
</g>
<!-- subject.Subject.Protocol -->
<g id="node12" class="node"><title>subject.Subject.Protocol</title>
<g id="a_node12"><a xlink:title="→ subject.Subject→ lab.Protocol">
<polygon fill="none" stroke="none" points="389,-98 266,-98 266,-79 389,-79 389,-98"/>
<text text-anchor="middle" x="327.5" y="-86" font-family="arial" font-size="10.00">subject.Subject.Protocol</text>
</a>
</g>
</g>
<!-- subject.Allele -->
<g id="node13" class="node"><title>subject.Allele</title>
<g id="a_node13"><a xlink:title="allele               ------------------------------allele_standard_name=&quot;&quot; ">
<polygon fill="#000000" fill-opacity="0.125490" stroke="none" points="1388,-177 1313,-177 1313,-142 1388,-142 1388,-177"/>
<text text-anchor="start" x="1321" y="-158" font-family="arial" text-decoration="underline" font-size="10.00">subject.Allele</text>
</a>
</g>
</g>
<!-- subject.Allele&#45;&gt;subject.Line.Allele -->
<g id="edge5" class="edge"><title>subject.Allele-&gt;subject.Line.Allele</title>
<path fill="none" stroke="#000000" stroke-width="0.75" stroke-opacity="0.250980" d="M1321.52,-141.973C1297.33,-128.178 1263.81,-109.064 1244.62,-98.1206"/>
</g>
<!-- subject.Allele&#45;&gt;subject.Zygosity -->
<g id="edge6" class="edge"><title>subject.Allele-&gt;subject.Zygosity</title>
<path fill="none" stroke="#000000" stroke-width="0.75" stroke-opacity="0.250980" d="M1312.95,-147.567C1272.48,-135.787 1207.9,-116.985 1163.24,-103.982"/>
</g>
<!-- subject.Allele&#45;&gt;subject.Allele.Source -->
<g id="edge7" class="edge"><title>subject.Allele-&gt;subject.Allele.Source</title>
<path fill="none" stroke="#000000" stroke-width="2" stroke-opacity="0.250980" d="M1350.5,-141.797C1350.5,-128.077 1350.5,-109.185 1350.5,-98.2652"/>
</g>
<!-- subject.Subject -->
<g id="node15" class="node"><title>subject.Subject</title>
<g id="a_node15"><a xlink:title="subject              ------------------------------subject_nickname=&quot;&quot;  sex                  subject_birth_date   subject_description=&quot;&quot; ">
<polygon fill="#00ff00" fill-opacity="0.188235" stroke="#00ff00" stroke-opacity="0.188235" points="645,-177 550,-177 550,-142 645,-142 645,-177"/>
<text text-anchor="start" x="558" y="-157.4" font-family="arial" text-decoration="underline" font-size="12.00" fill="darkgreen">subject.Subject</text>
</a>
</g>
</g>
<!-- subject.Subject&#45;&gt;subject.Subject.Source -->
<g id="edge8" class="edge"><title>subject.Subject-&gt;subject.Subject.Source</title>
<path fill="none" stroke="#000000" stroke-width="2" stroke-opacity="0.250980" d="M566.122,-141.973C539.932,-128.178 503.644,-109.064 482.867,-98.1206"/>
</g>
<!-- subject.Subject&#45;&gt;subject.Subject.User -->
<g id="edge9" class="edge"><title>subject.Subject-&gt;subject.Subject.User</title>
<path fill="none" stroke="#000000" stroke-width="0.75" stroke-opacity="0.250980" d="M597.5,-141.797C597.5,-128.077 597.5,-109.185 597.5,-98.2652"/>
</g>
<!-- subject.Subject&#45;&gt;subject.Subject.Species -->
<g id="edge10" class="edge"><title>subject.Subject-&gt;subject.Subject.Species</title>
<path fill="none" stroke="#000000" stroke-width="2" stroke-opacity="0.250980" d="M629.357,-141.973C655.947,-128.178 692.789,-109.064 713.884,-98.1206"/>
</g>
<!-- subject.Subject&#45;&gt;subject.SubjectDeath -->
<g id="edge11" class="edge"><title>subject.Subject-&gt;subject.SubjectDeath</title>
<path fill="none" stroke="#000000" stroke-width="2" stroke-opacity="0.250980" d="M549.698,-154.847C465.561,-148.021 285.691,-131.66 135.5,-106 132.719,-105.525 129.884,-105.01 127.026,-104.464"/>
</g>
<!-- subject.Subject&#45;&gt;subject.Subject.Lab -->
<g id="edge12" class="edge"><title>subject.Subject-&gt;subject.Subject.Lab</title>
<path fill="none" stroke="#000000" stroke-width="0.75" stroke-opacity="0.250980" d="M549.742,-152.918C483.502,-144.774 360.179,-128.16 256.5,-106 246.147,-103.787 234.927,-100.851 225.022,-98.0685"/>
</g>
<!-- subject.Subject&#45;&gt;subject.Zygosity -->
<g id="edge13" class="edge"><title>subject.Subject-&gt;subject.Zygosity</title>
<path fill="none" stroke="#000000" stroke-width="0.75" stroke-opacity="0.250980" d="M645.035,-155.614C728.669,-149.969 907.317,-135.367 1055.5,-106 1058.27,-105.451 1061.11,-104.833 1063.96,-104.169"/>
</g>
<!-- subject.Subject&#45;&gt;subject.Subject.Strain -->
<g id="edge14" class="edge"><title>subject.Subject-&gt;subject.Subject.Strain</title>
<path fill="none" stroke="#000000" stroke-width="2" stroke-opacity="0.250980" d="M645.282,-146.244C699.331,-132.38 785.951,-110.161 833.168,-98.0497"/>
</g>
<!-- subject.Subject&#45;&gt;subject.Subject.Protocol -->
<g id="edge15" class="edge"><title>subject.Subject-&gt;subject.Subject.Protocol</title>
<path fill="none" stroke="#000000" stroke-width="0.75" stroke-opacity="0.250980" d="M549.851,-146.323C495.653,-132.473 408.539,-110.21 361.037,-98.0706"/>
</g>
<!-- subject.Subject&#45;&gt;subject.Subject.Line -->
<g id="edge16" class="edge"><title>subject.Subject-&gt;subject.Subject.Line</title>
<path fill="none" stroke="#000000" stroke-width="2" stroke-opacity="0.250980" d="M645.075,-152.61C710.116,-144.196 830.275,-127.364 931.5,-106 942.18,-103.746 953.77,-100.799 964.006,-98.0213"/>
</g>
</g>
</svg>