<svg xmlns="http://www.w3.org/2000/svg" xmlns:xlink="http://www.w3.org/1999/xlink" width="704pt" height="185pt" viewBox="0.00 0.00 704.00 185.00">
<g id="graph0" class="graph" transform="scale(1 1) rotate(0) translate(4 181)">
<polygon fill="white" stroke="none" points="-4,4 -4,-181 700,-181 700,4 -4,4"/>
<!-- 15 -->
<g id="node1" class="node">
<title>15</title>
<ellipse fill="#ff8800" fill-opacity="0.501961" stroke="#ff8800" stroke-opacity="0.501961" cx="53.5" cy="-88.5" rx="2" ry="2"/>
<text text-anchor="middle" x="53.5" y="-88.2" font-family="arial" font-size="1.00" fill="#ff8800" fill-opacity="0.501961">15</text>
</g>
<!-- surgery.Implantation -->
<g id="node9" class="node">
<title>surgery.Implantation</title>
<g id="a_node9"><a xlink:title="→ subject.Subjectimplant_date         → surgery.ImplantationType→ surgery.BrainRegion→ surgery.Hemisphere------------------------------→ lab.User.proj(surgeon=&quot;user&quot;)ap                   → surgery.CoordinateReference.proj(ap_ref=&quot;reference&quot;)ml                   → surgery.CoordinateReference.proj(ml_ref=&quot;reference&quot;)dv                   → surgery.CoordinateReference.proj(dv_ref=&quot;reference&quot;)theta=null           phi=null             beta=null            ">
<polygon fill="#00ff00" fill-opacity="0.188235" stroke="#00ff00" stroke-opacity="0.188235" points="268.5,-35 144.5,-35 144.5,0 268.5,0 268.5,-35"/>
<text text-anchor="start" x="152.5" y="-15.4" font-family="arial" text-decoration="underline" font-size="12.00" fill="darkgreen">surgery.Implantation</text>
</a>
</g>
</g>
<!-- 15&#45;&gt;surgery.Implantation -->
<g id="edge1" class="edge">
<title>15-&gt;surgery.Implantation</title>
<path fill="none" stroke="#000000" stroke-width="0.75" stroke-dasharray="5,2" stroke-opacity="0.250980" d="M54.11,-86.77C56.26,-84.26 63.72,-75.84 71.5,-71 95.52,-56.06 124.5,-44.11 149.44,-35.41"/>
</g>
<!-- 16 -->
<g id="node2" class="node">
<title>16</title>
<ellipse fill="#ff8800" fill-opacity="0.501961" stroke="#ff8800" stroke-opacity="0.501961" cx="89.5" cy="-88.5" rx="2" ry="2"/>
<text text-anchor="middle" x="89.5" y="-88.2" font-family="arial" font-size="1.00" fill="#ff8800" fill-opacity="0.501961">16</text>
</g>
<!-- 16&#45;&gt;surgery.Implantation -->
<g id="edge2" class="edge">
<title>16-&gt;surgery.Implantation</title>
<path fill="none" stroke="#000000" stroke-width="0.75" stroke-dasharray="5,2" stroke-opacity="0.250980" d="M90.13,-86.8C92.35,-84.4 100.02,-76.28 107.5,-71 126.89,-57.31 150.28,-44.75 169.46,-35.34"/>
</g>
<!-- 17 -->
<g id="node3" class="node">
<title>17</title>
<ellipse fill="#ff8800" fill-opacity="0.501961" stroke="#ff8800" stroke-opacity="0.501961" cx="125.5" cy="-88.5" rx="2" ry="2"/>
<text text-anchor="middle" x="125.5" y="-88.2" font-family="arial" font-size="1.00" fill="#ff8800" fill-opacity="0.501961">17</text>
</g>
<!-- 17&#45;&gt;surgery.Implantation -->
<g id="edge3" class="edge">
<title>17-&gt;surgery.Implantation</title>
<path fill="none" stroke="#000000" stroke-width="0.75" stroke-dasharray="5,2" stroke-opacity="0.250980" d="M126.18,-86.86C128.53,-84.63 136.61,-77.03 143.5,-71 157.44,-58.82 173.46,-45.47 185.87,-35.28"/>
</g>
<!-- 14 -->
<g id="node4" class="node">
<title>14</title>
<ellipse fill="#ff8800" fill-opacity="0.501961" stroke="#ff8800" stroke-opacity="0.501961" cx="161.5" cy="-88.5" rx="2" ry="2"/>
<text text-anchor="middle" x="161.5" y="-88.2" font-family="arial" font-size="1.00" fill="#ff8800" fill-opacity="0.501961">14</text>
</g>
<!-- 14&#45;&gt;surgery.Implantation -->
<g id="edge4" class="edge">
<title>14-&gt;surgery.Implantation</title>
<path fill="none" stroke="#000000" stroke-width="0.75" stroke-dasharray="5,2" stroke-opacity="0.250980" d="M162.01,-86.73C165.25,-81.75 183.4,-53.92 195.49,-35.38"/>
</g>
<!-- surgery.BrainRegion -->
<g id="node5" class="node">
<title>surgery.BrainRegion</title>
<g id="a_node5"><a xlink:title="region_acronym       ------------------------------region_name          ">
<polygon fill="#00ff00" fill-opacity="0.188235" stroke="#00ff00" stroke-opacity="0.188235" points="314.5,-106 188.5,-106 188.5,-71 314.5,-71 314.5,-106"/>
<text text-anchor="start" x="196.5" y="-86.4" font-family="arial" text-decoration="underline" font-size="12.00" fill="darkgreen">surgery.BrainRegion</text>
</a>
</g>
</g>
<!-- surgery.BrainRegion&#45;&gt;surgery.Implantation -->
<g id="edge5" class="edge">
<title>surgery.BrainRegion-&gt;surgery.Implantation</title>
<path fill="none" stroke="#000000" stroke-width="0.75" stroke-opacity="0.250980" d="M240.61,-70.8C233.53,-59.95 224.35,-45.87 217.29,-35.05"/>
</g>
<!-- surgery.CoordinateReference -->
<g id="node6" class="node">
<title>surgery.CoordinateReference</title>
<g id="a_node6"><a xlink:title="reference            ">
<polygon fill="#000000" fill-opacity="0.125490" stroke="none" points="143,-177 0,-177 0,-142 143,-142 143,-177"/>
<text text-anchor="start" x="8" y="-158" font-family="arial" text-decoration="underline" font-size="10.00">surgery.CoordinateReference</text>
</a>
</g>
</g>
<!-- surgery.CoordinateReference&#45;&gt;15 -->
<g id="edge6" class="edge">
<title>surgery.CoordinateReference-&gt;15</title>
<path fill="none" stroke="#000000" stroke-width="0.75" stroke-dasharray="5,2" stroke-opacity="0.250980" d="M67.23,-142.15C62.41,-123.66 55.05,-95.44 53.71,-90.31"/>
</g>
<!-- surgery.CoordinateReference&#45;&gt;16 -->
<g id="edge7" class="edge">
<title>surgery.CoordinateReference-&gt;16</title>
<path fill="none" stroke="#000000" stroke-width="0.75" stroke-dasharray="5,2" stroke-opacity="0.250980" d="M75.77,-142.15C80.59,-123.66 87.95,-95.44 89.29,-90.31"/>
</g>
<!-- surgery.CoordinateReference&#45;&gt;17 -->
<g id="edge8" class="edge">
<title>surgery.CoordinateReference-&gt;17</title>
<path fill="none" stroke="#000000" stroke-width="0.75" stroke-dasharray="5,2" stroke-opacity="0.250980" d="M84.3,-142.15C98.77,-123.66 120.85,-95.44 124.86,-90.31"/>
</g>
<!-- lab.User -->
<g id="node7" class="node">
<title>lab.User</title>
<g id="a_node7"><a xlink:title="user                 ------------------------------user_email=&quot;&quot;        user_cellphone=&quot;&quot;    user_fullname=&quot;&quot;     ">
<polygon fill="#000000" fill-opacity="0.125490" stroke="none" points="214,-177 161,-177 161,-142 214,-142 214,-177"/>
<text text-anchor="start" x="169" y="-158" font-family="arial" text-decoration="underline" font-size="10.00">lab.User</text>
</a>
</g>
</g>
<!-- lab.User&#45;&gt;14 -->
<g id="edge9" class="edge">
<title>lab.User-&gt;14</title>
<path fill="none" stroke="#000000" stroke-width="0.75" stroke-dasharray="5,2" stroke-opacity="0.250980" d="M181.34,-142.15C174.37,-123.66 163.74,-95.44 161.81,-90.31"/>
</g>
<!-- subject.Subject -->
<g id="node8" class="node">
<title>subject.Subject</title>
<g id="a_node8"><a xlink:title="subject              ------------------------------subject_nickname=&quot;&quot;  sex                  subject_birth_date   subject_description=&quot;&quot; ">
<polygon fill="#00ff00" fill-opacity="0.188235" stroke="#00ff00" stroke-opacity="0.188235" points="430.5,-106 332.5,-106 332.5,-71 430.5,-71 430.5,-106"/>
<text text-anchor="start" x="340.5" y="-86.4" font-family="arial" text-decoration="underline" font-size="12.00" fill="darkgreen">subject.Subject</text>
</a>
</g>
</g>
<!-- subject.Subject&#45;&gt;surgery.Implantation -->
<g id="edge10" class="edge">
<title>subject.Subject-&gt;surgery.Implantation</title>
<path fill="none" stroke="#000000" stroke-width="0.75" stroke-opacity="0.250980" d="M338.69,-70.62C311.57,-59.93 276.62,-46.15 249.47,-35.44"/>
</g>
<!-- surgery.Hemisphere -->
<g id="node10" class="node">
<title>surgery.Hemisphere</title>
<g id="a_node10"><a xlink:title="hemisphere           ">
<polygon fill="#000000" fill-opacity="0.125490" stroke="none" points="552.5,-106 448.5,-106 448.5,-71 552.5,-71 552.5,-106"/>
<text text-anchor="start" x="456.5" y="-87" font-family="arial" text-decoration="underline" font-size="10.00">surgery.Hemisphere</text>
</a>
</g>
</g>
<!-- surgery.Hemisphere&#45;&gt;surgery.Implantation -->
<g id="edge11" class="edge">
<title>surgery.Hemisphere-&gt;surgery.Implantation</title>
<path fill="none" stroke="#000000" stroke-width="0.75" stroke-opacity="0.250980" d="M448.62,-73.31C445.54,-72.51 442.48,-71.74 439.5,-71 381.94,-56.74 315.99,-42.03 268.97,-31.82"/>
</g>
<!-- surgery.ImplantationType -->
<g id="node11" class="node">
<title>surgery.ImplantationType</title>
<g id="a_node11"><a xlink:title="implant_type         ------------------------------implant_description  ">
<polygon fill="#000000" fill-opacity="0.125490" stroke="none" points="696,-106 571,-106 571,-71 696,-71 696,-106"/>
<text text-anchor="start" x="579" y="-87" font-family="arial" text-decoration="underline" font-size="10.00">surgery.ImplantationType</text>
</a>
</g>
</g>
<!-- surgery.ImplantationType&#45;&gt;surgery.Implantation -->
<g id="edge12" class="edge">
<title>surgery.ImplantationType-&gt;surgery.Implantation</title>
<path fill="none" stroke="#000000" stroke-width="0.75" stroke-opacity="0.250980" d="M571.12,-72.89C567.87,-72.23 564.65,-71.59 561.5,-71 459.56,-51.81 340.05,-35.38 268.95,-26.23"/>
</g>
</g>
</svg>